<mxfile host="app.diagrams.net" modified="2021-12-03T03:53:53.157Z" agent="5.0 (Macintosh; Intel Mac OS X 10_15_7) AppleWebKit/537.36 (KHTML, like Gecko) Chrome/96.0.4664.55 Safari/537.36" etag="gUjgQ8Q-pow57-og0EUf" version="15.8.8" type="github">
  <diagram id="FrRXY8XsxeKkbpG1BKy7" name="第 1 页">
    <mxGraphModel dx="946" dy="613" grid="1" gridSize="10" guides="1" tooltips="1" connect="1" arrows="1" fold="1" page="1" pageScale="1" pageWidth="827" pageHeight="1169" math="0" shadow="0">
      <root>
        <mxCell id="0" />
        <mxCell id="1" parent="0" />
        <mxCell id="fXP4B3op7cW4psQ4yn_M-21" value="spec profile" style="rhombus;whiteSpace=wrap;html=1;rounded=0;sketch=0;" parent="1" vertex="1">
          <mxGeometry x="385" y="470" width="110" height="80" as="geometry" />
        </mxCell>
        <mxCell id="fXP4B3op7cW4psQ4yn_M-7" value="" style="edgeStyle=orthogonalEdgeStyle;rounded=0;orthogonalLoop=1;jettySize=auto;html=1;" parent="1" source="fXP4B3op7cW4psQ4yn_M-2" target="fXP4B3op7cW4psQ4yn_M-5" edge="1">
          <mxGeometry relative="1" as="geometry" />
        </mxCell>
        <mxCell id="fXP4B3op7cW4psQ4yn_M-2" value="install" style="rounded=1;whiteSpace=wrap;html=1;" parent="1" vertex="1">
          <mxGeometry x="110" y="100" width="120" height="60" as="geometry" />
        </mxCell>
        <mxCell id="fXP4B3op7cW4psQ4yn_M-8" value="" style="edgeStyle=orthogonalEdgeStyle;rounded=0;orthogonalLoop=1;jettySize=auto;html=1;" parent="1" source="fXP4B3op7cW4psQ4yn_M-5" target="fXP4B3op7cW4psQ4yn_M-6" edge="1">
          <mxGeometry relative="1" as="geometry" />
        </mxCell>
        <mxCell id="fXP4B3op7cW4psQ4yn_M-5" value="generate config" style="rounded=1;whiteSpace=wrap;html=1;" parent="1" vertex="1">
          <mxGeometry x="110" y="210" width="120" height="60" as="geometry" />
        </mxCell>
        <mxCell id="fXP4B3op7cW4psQ4yn_M-6" value="install manifests" style="rounded=1;whiteSpace=wrap;html=1;" parent="1" vertex="1">
          <mxGeometry x="110" y="330" width="120" height="60" as="geometry" />
        </mxCell>
        <mxCell id="fXP4B3op7cW4psQ4yn_M-11" value="" style="edgeStyle=orthogonalEdgeStyle;rounded=0;orthogonalLoop=1;jettySize=auto;html=1;" parent="1" source="fXP4B3op7cW4psQ4yn_M-9" target="fXP4B3op7cW4psQ4yn_M-10" edge="1">
          <mxGeometry relative="1" as="geometry" />
        </mxCell>
        <mxCell id="fXP4B3op7cW4psQ4yn_M-9" value="generate config" style="rounded=1;whiteSpace=wrap;html=1;" parent="1" vertex="1">
          <mxGeometry x="380" y="50" width="120" height="60" as="geometry" />
        </mxCell>
        <mxCell id="fXP4B3op7cW4psQ4yn_M-16" value="" style="edgeStyle=orthogonalEdgeStyle;rounded=0;orthogonalLoop=1;jettySize=auto;html=1;" parent="1" source="fXP4B3op7cW4psQ4yn_M-10" target="fXP4B3op7cW4psQ4yn_M-15" edge="1">
          <mxGeometry relative="1" as="geometry" />
        </mxCell>
        <mxCell id="fXP4B3op7cW4psQ4yn_M-38" value="Y" style="edgeLabel;html=1;align=center;verticalAlign=middle;resizable=0;points=[];" parent="fXP4B3op7cW4psQ4yn_M-16" vertex="1" connectable="0">
          <mxGeometry x="-0.25" y="-2" relative="1" as="geometry">
            <mxPoint as="offset" />
          </mxGeometry>
        </mxCell>
        <mxCell id="fXP4B3op7cW4psQ4yn_M-36" style="edgeStyle=orthogonalEdgeStyle;rounded=0;orthogonalLoop=1;jettySize=auto;html=1;exitX=1;exitY=0.5;exitDx=0;exitDy=0;" parent="1" source="fXP4B3op7cW4psQ4yn_M-10" edge="1">
          <mxGeometry relative="1" as="geometry">
            <mxPoint x="440" y="770" as="targetPoint" />
            <Array as="points">
              <mxPoint x="640" y="170" />
              <mxPoint x="640" y="770" />
              <mxPoint x="440" y="770" />
            </Array>
          </mxGeometry>
        </mxCell>
        <mxCell id="fXP4B3op7cW4psQ4yn_M-37" value="N" style="edgeLabel;html=1;align=center;verticalAlign=middle;resizable=0;points=[];" parent="fXP4B3op7cW4psQ4yn_M-36" vertex="1" connectable="0">
          <mxGeometry x="-0.857" relative="1" as="geometry">
            <mxPoint as="offset" />
          </mxGeometry>
        </mxCell>
        <mxCell id="fXP4B3op7cW4psQ4yn_M-10" value="valid flag" style="rhombus;whiteSpace=wrap;html=1;rounded=0;sketch=0;" parent="1" vertex="1">
          <mxGeometry x="385" y="130" width="110" height="80" as="geometry" />
        </mxCell>
        <mxCell id="fXP4B3op7cW4psQ4yn_M-18" value="" style="edgeStyle=orthogonalEdgeStyle;rounded=0;orthogonalLoop=1;jettySize=auto;html=1;" parent="1" source="fXP4B3op7cW4psQ4yn_M-15" target="fXP4B3op7cW4psQ4yn_M-17" edge="1">
          <mxGeometry relative="1" as="geometry" />
        </mxCell>
        <mxCell id="fXP4B3op7cW4psQ4yn_M-34" value="Y" style="edgeLabel;html=1;align=center;verticalAlign=middle;resizable=0;points=[];" parent="fXP4B3op7cW4psQ4yn_M-18" vertex="1" connectable="0">
          <mxGeometry x="-0.1" y="1" relative="1" as="geometry">
            <mxPoint as="offset" />
          </mxGeometry>
        </mxCell>
        <mxCell id="fXP4B3op7cW4psQ4yn_M-33" style="edgeStyle=orthogonalEdgeStyle;rounded=0;orthogonalLoop=1;jettySize=auto;html=1;" parent="1" source="fXP4B3op7cW4psQ4yn_M-15" edge="1">
          <mxGeometry relative="1" as="geometry">
            <mxPoint x="440" y="450" as="targetPoint" />
            <Array as="points">
              <mxPoint x="560" y="290" />
              <mxPoint x="560" y="450" />
            </Array>
          </mxGeometry>
        </mxCell>
        <mxCell id="fXP4B3op7cW4psQ4yn_M-35" value="N" style="edgeLabel;html=1;align=center;verticalAlign=middle;resizable=0;points=[];" parent="fXP4B3op7cW4psQ4yn_M-33" vertex="1" connectable="0">
          <mxGeometry x="-0.3623" y="1" relative="1" as="geometry">
            <mxPoint as="offset" />
          </mxGeometry>
        </mxCell>
        <mxCell id="fXP4B3op7cW4psQ4yn_M-15" value="spec istiooperaor" style="rhombus;whiteSpace=wrap;html=1;rounded=0;sketch=0;" parent="1" vertex="1">
          <mxGeometry x="385" y="250" width="110" height="80" as="geometry" />
        </mxCell>
        <mxCell id="fXP4B3op7cW4psQ4yn_M-22" value="" style="edgeStyle=orthogonalEdgeStyle;rounded=0;orthogonalLoop=1;jettySize=auto;html=1;" parent="1" source="fXP4B3op7cW4psQ4yn_M-17" target="fXP4B3op7cW4psQ4yn_M-21" edge="1">
          <mxGeometry relative="1" as="geometry" />
        </mxCell>
        <mxCell id="fXP4B3op7cW4psQ4yn_M-17" value="get iop" style="whiteSpace=wrap;html=1;rounded=1;sketch=0;" parent="1" vertex="1">
          <mxGeometry x="380" y="370" width="120" height="60" as="geometry" />
        </mxCell>
        <mxCell id="fXP4B3op7cW4psQ4yn_M-24" value="" style="edgeStyle=orthogonalEdgeStyle;rounded=0;orthogonalLoop=1;jettySize=auto;html=1;" parent="1" source="fXP4B3op7cW4psQ4yn_M-21" target="fXP4B3op7cW4psQ4yn_M-23" edge="1">
          <mxGeometry relative="1" as="geometry" />
        </mxCell>
        <mxCell id="fXP4B3op7cW4psQ4yn_M-26" value="Y" style="edgeLabel;html=1;align=center;verticalAlign=middle;resizable=0;points=[];" parent="fXP4B3op7cW4psQ4yn_M-24" vertex="1" connectable="0">
          <mxGeometry x="-0.2857" y="-1" relative="1" as="geometry">
            <mxPoint as="offset" />
          </mxGeometry>
        </mxCell>
        <mxCell id="fXP4B3op7cW4psQ4yn_M-29" style="edgeStyle=orthogonalEdgeStyle;rounded=0;orthogonalLoop=1;jettySize=auto;html=1;exitX=1;exitY=0.5;exitDx=0;exitDy=0;" parent="1" source="fXP4B3op7cW4psQ4yn_M-21" edge="1">
          <mxGeometry relative="1" as="geometry">
            <Array as="points">
              <mxPoint x="570" y="510" />
              <mxPoint x="570" y="670" />
              <mxPoint x="500" y="670" />
            </Array>
            <mxPoint x="440" y="670" as="targetPoint" />
          </mxGeometry>
        </mxCell>
        <mxCell id="fXP4B3op7cW4psQ4yn_M-30" value="N profile=default" style="edgeLabel;html=1;align=center;verticalAlign=middle;resizable=0;points=[];" parent="fXP4B3op7cW4psQ4yn_M-29" vertex="1" connectable="0">
          <mxGeometry x="-0.0918" y="2" relative="1" as="geometry">
            <mxPoint as="offset" />
          </mxGeometry>
        </mxCell>
        <mxCell id="fXP4B3op7cW4psQ4yn_M-28" value="" style="edgeStyle=orthogonalEdgeStyle;rounded=0;orthogonalLoop=1;jettySize=auto;html=1;" parent="1" source="fXP4B3op7cW4psQ4yn_M-23" target="fXP4B3op7cW4psQ4yn_M-27" edge="1">
          <mxGeometry relative="1" as="geometry" />
        </mxCell>
        <mxCell id="fXP4B3op7cW4psQ4yn_M-23" value="get profile from args" style="whiteSpace=wrap;html=1;rounded=1;sketch=0;" parent="1" vertex="1">
          <mxGeometry x="380" y="585" width="120" height="60" as="geometry" />
        </mxCell>
        <mxCell id="fXP4B3op7cW4psQ4yn_M-32" value="" style="edgeStyle=orthogonalEdgeStyle;rounded=0;orthogonalLoop=1;jettySize=auto;html=1;" parent="1" source="fXP4B3op7cW4psQ4yn_M-27" target="fXP4B3op7cW4psQ4yn_M-31" edge="1">
          <mxGeometry relative="1" as="geometry" />
        </mxCell>
        <mxCell id="fXP4B3op7cW4psQ4yn_M-27" value="iop overlay" style="whiteSpace=wrap;html=1;rounded=1;sketch=0;" parent="1" vertex="1">
          <mxGeometry x="380" y="690" width="120" height="60" as="geometry" />
        </mxCell>
        <mxCell id="fXP4B3op7cW4psQ4yn_M-31" value="return" style="whiteSpace=wrap;html=1;rounded=1;sketch=0;" parent="1" vertex="1">
          <mxGeometry x="380" y="800" width="120" height="60" as="geometry" />
        </mxCell>
      </root>
    </mxGraphModel>
  </diagram>
</mxfile>
